<?xml version="1.0" encoding="utf-8"?>
<!-- Generator: Adobe Illustrator 19.1.0, SVG Export Plug-In . SVG Version: 6.00 Build 0)  -->
<svg version="1.1" id="Pencil" xmlns="http://www.w3.org/2000/svg" xmlns:xlink="http://www.w3.org/1999/xlink" x="0px" y="0px"
	 viewBox="-295 387 29 29" style="enable-background:new -295 387 29 29;" xml:space="preserve">
<style type="text/css">
	.st0{fill:#FFFFFF;}
</style>
<path class="st0" d="M-286.2,392.1c1.2,0.3,2.4,0.6,3.6,0.9c0.7,0.8,1.4,1.6,2,2.4c-2.4,1.9-4.9,3.9-7.3,5.8
	c-0.6-0.7-1.2-1.4-1.8-2.1c-0.2-1.2-0.3-2.4-0.5-3.6C-288.8,394.4-287.5,393.2-286.2,392.1z"/>
<path d="M-268.1,407.4c0-0.3,0-0.4-0.3-0.7l-9.3-10.6l-3.3-3.9c-0.6-0.6-1.3-1-1.9-1.3l-8.9-2.5c-0.7-0.1-1.3,0.4-1.1,1l1.4,9.2
	c0.1,0.7,0.4,1.5,1,2.1l4.2,4.7l8.5,9.7c0.1,0.1,0.4,0.3,0.6,0.3c0.8,0,3.1-0.1,6-2.6C-268.6,410.3-268.1,408.3-268.1,407.4z
	 M-281.7,394.1c0,0-0.1,2.1-2.6,4.2c-2.4,2.1-4.4,2.1-4.4,2.1l-1-1.1l-0.6-3.5c0-0.1,0-0.3,0.1-0.3c0.7-0.3,1.3-0.7,2.1-1.4
	c0.7-0.7,1.3-1.3,1.5-1.8c0.1-0.1,0.3-0.1,0.4-0.1l3.5,1L-281.7,394.1z"/>
</svg>
